<?xml version="1.0" encoding="utf-8"?>
<!-- Generator: Adobe Illustrator 22.0.1, SVG Export Plug-In . SVG Version: 6.00 Build 0)  -->
<svg version="1.1" id="Layer_1" xmlns="http://www.w3.org/2000/svg" xmlns:xlink="http://www.w3.org/1999/xlink" x="0px" y="0px"
	 viewBox="0 0 1920 1280" style="enable-background:new 0 0 1920 1280;" xml:space="preserve">
<style type="text/css">
	.st0{fill:#E3E3E3;stroke:#000000;stroke-miterlimit:10;}
	.st1{fill:#CCCCCB;}
	.st2{fill:#FFFFFF;}
	.st3{opacity:0.54;}
	.st4{fill:#547DBF;}
	.st5{fill:#94D4EC;}
	.st6{opacity:0.12;}
	.st7{fill:#3D60AD;}
	.st8{opacity:0.4;fill:#FFFFFF;}
	.st9{fill:#4B4B4B;}
	.st10{opacity:0.5;fill:#4B4B4B;}
	.st11{opacity:0.25;fill:#4B4B4B;}
	.st12{opacity:0.15;fill:#4B4B4B;}
	.st13{fill:#9E9D9E;stroke:#9E9D9E;stroke-miterlimit:10;}
	.st14{fill:none;stroke:#F07A22;stroke-width:15;stroke-miterlimit:10;}
	.st15{fill:url(#SVGID_1_);}
	.st16{fill:url(#SVGID_2_);}
	.st17{clip-path:url(#SVGID_4_);}
	.st18{fill:#F47D20;}
	.st19{fill:#FDC113;}
	.st20{clip-path:url(#SVGID_6_);fill:url(#SVGID_7_);}
	.st21{opacity:0.2;clip-path:url(#SVGID_9_);fill:#FFFFFF;enable-background:new    ;}
	.st22{opacity:0.2;clip-path:url(#SVGID_11_);fill:#FFFFFF;enable-background:new    ;}
	.st23{opacity:0.2;clip-path:url(#SVGID_13_);fill:#FFFFFF;enable-background:new    ;}
	.st24{opacity:0.2;clip-path:url(#SVGID_15_);fill:#BE3B26;enable-background:new    ;}
	.st25{fill:url(#SVGID_16_);}
</style>
<rect class="st0" width="1920" height="1280"/>
<rect x="174.7" y="158.3" class="st1" width="1600" height="120"/>
<rect x="166.9" y="148.6" class="st2" width="1600" height="120"/>
<g>
	<rect x="174.7" y="311.3" class="st1" width="646.8" height="120"/>
	<rect x="166.9" y="301.6" class="st2" width="646.8" height="120"/>
</g>
<g>
	<rect x="176.8" y="465.7" class="st1" width="822" height="574.8"/>
	<rect x="170.8" y="454.4" class="st2" width="822" height="574.8"/>
</g>
<rect x="0.6" y="148.6" transform="matrix(-1 -1.224647e-16 1.224647e-16 -1 119.1011 1428.6296)" class="st2" width="117.9" height="1131.4"/>
<rect x="901" y="-901.4" transform="matrix(-1.836970e-16 1 -1 -1.836970e-16 1018.5833 -901.4167)" class="st2" width="117.9" height="1920"/>
<g class="st3">
	<path d="M46.2,650.9l12.2-12.2h9.7c1.3,3.5,4.6,6.1,8.6,6.1c5.1,0,9.2-4.1,9.2-9.2s-4.1-9.2-9.2-9.2c-4,0-7.3,2.6-8.6,6.1h-9.7
		l-12.2-12.2v-12.2H30.9v15.3h9.3L53,635.7l-12.8,12.2h-9.3v15.3h15.3V650.9z"/>
	<path d="M58.4,505.7c7.6,0,13.8-6.2,13.8-13.8c0-7.6-6.2-13.8-13.8-13.8s-13.8,6.2-13.8,13.8C44.6,499.5,50.8,505.7,58.4,505.7z
		 M58.4,512.6c-9.2,0-27.5,4.6-27.5,13.8v6.9h55v-6.9C85.9,517.2,67.5,512.6,58.4,512.6z"/>
	<path d="M80.4,743.6h-44c-3,0-5.5,2.5-5.5,5.5l0,33c0,3,2.5,5.5,5.5,5.5h44c3,0,5.5-2.5,5.5-5.5v-33
		C85.9,746.1,83.4,743.6,80.4,743.6z M66.6,782.1H36.4v-11h30.3V782.1z M66.6,768.4H36.4v-11h30.3V768.4z M80.4,782.1h-11v-24.8h11
		V782.1z"/>
	<path d="M64.5,874.5l-1.3-6.5H34.1v55h6.5v-22.6h18.1l1.3,6.5h22.6v-32.4H64.5z"/>
	<g>
		<g>
			<path d="M51.5,1046.1c0,1.3,1,2.3,2.3,2.3h9.2c1.3,0,2.3-1,2.3-2.3v-2.3H51.5L51.5,1046.1L51.5,1046.1z M58.4,1002.6
				c-8.9,0-16,7.2-16,16c0,5.5,2.7,10.3,6.9,13.2v5.2c0,1.3,1,2.3,2.3,2.3h13.7c1.3,0,2.3-1,2.3-2.3v-5.2c4.1-2.9,6.9-7.7,6.9-13.2
				C74.4,1009.8,67.2,1002.6,58.4,1002.6z M64.9,1028l-2,1.4v5.3h-9.2v-5.3l-2-1.4c-3.1-2.2-4.9-5.7-4.9-9.4
				c0-6.3,5.1-11.5,11.5-11.5s11.5,5.1,11.5,11.5C69.8,1022.4,68,1025.9,64.9,1028z"/>
		</g>
	</g>
	<g>
		<path d="M56.7,374.4h2.8v2.8h-2.8V374.4z"/>
		<path d="M58.4,352.9c-12.7,0-22.9,10.3-22.9,22.9c0,12.7,10.2,22.9,22.9,22.9s22.9-10.3,22.9-22.9C81.3,363.1,71,352.9,58.4,352.9
			z M58.4,394.1c-10.1,0-18.3-8.2-18.3-18.3s8.2-18.3,18.3-18.3s18.3,8.2,18.3,18.3S68.5,394.1,58.4,394.1z"/>
		<path d="M59.5,364.3h-3.4v13.8l12,7.2l1.7-2.8l-10.3-6.1V364.3z"/>
	</g>
	<path d="M78.8,1158.1c0.1-0.9,0.2-1.8,0.2-2.7c0-0.9-0.1-1.8-0.2-2.7l5.8-4.5c0.5-0.4,0.7-1.2,0.3-1.8l-5.5-9.5
		c-0.3-0.6-1.1-0.8-1.7-0.6l-6.9,2.8c-1.4-1.1-3-2-4.6-2.7l-1-7.3c-0.1-0.6-0.7-1.2-1.4-1.2h-11c-0.7,0-1.3,0.5-1.4,1.2l-1,7.3
		c-1.7,0.7-3.2,1.6-4.6,2.7l-6.9-2.8c-0.6-0.2-1.3,0-1.7,0.6l-5.5,9.5c-0.3,0.6-0.2,1.3,0.3,1.8l5.8,4.5c-0.1,0.9-0.2,1.8-0.2,2.7
		s0.1,1.8,0.2,2.7l-5.8,4.5c-0.5,0.4-0.7,1.2-0.3,1.8l5.5,9.5c0.3,0.6,1.1,0.8,1.7,0.6l6.9-2.8c1.4,1.1,3,2,4.6,2.7l1,7.3
		c0.1,0.6,0.7,1.2,1.4,1.2h11c0.7,0,1.3-0.5,1.4-1.2l1-7.3c1.7-0.7,3.2-1.6,4.6-2.7l6.9,2.8c0.6,0.2,1.3,0,1.7-0.6l5.5-9.5
		c0.3-0.6,0.2-1.3-0.3-1.8L78.8,1158.1z M58.4,1165.1c-5.3,0-9.6-4.3-9.6-9.6s4.3-9.6,9.6-9.6s9.6,4.3,9.6,9.6
		S63.7,1165.1,58.4,1165.1z"/>
	<path d="M53.1,273.3v-19.4H66v19.4h16.2v-25.9h9.7l-32.4-29.1l-32.4,29.1h9.7v25.9H53.1z"/>
</g>
<g>
	<rect x="1423.1" y="465.7" class="st1" width="348.8" height="574.8"/>
	<rect x="1415.6" y="454.4" class="st4" width="348.8" height="574.8"/>
</g>
<g>
	<rect x="1046.8" y="465.7" class="st1" width="348.8" height="574.8"/>
	<rect x="1040.3" y="454.4" class="st2" width="348.8" height="574.8"/>
</g>
<rect x="1171.6" y="898.7" class="st5" width="90" height="30"/>
<g>
	<rect x="1069.8" y="947.2" class="st4" width="90" height="30"/>
	<rect x="1069.8" y="898.7" class="st5" width="90" height="30"/>
	<rect x="1069.8" y="801.6" class="st6" width="90" height="30"/>
	<rect x="1171.6" y="753.1" class="st7" width="90" height="30"/>
	<rect x="1069.8" y="510.5" class="st7" width="90" height="30"/>
	<rect x="1069.8" y="607.5" class="st7" width="90" height="30"/>
	<rect x="1069.8" y="656.1" class="st7" width="90" height="30"/>
	<rect x="1069.8" y="704.6" class="st7" width="90" height="30"/>
	<rect x="1069.8" y="559" class="st7" width="90" height="30"/>
	<rect x="1069.8" y="753.1" class="st5" width="90" height="30"/>
	<rect x="1171.6" y="704.6" class="st5" width="90" height="30"/>
	<rect x="1171.6" y="801.6" class="st5" width="90" height="30"/>
	<rect x="1171.4" y="850.2" class="st6" width="90" height="30"/>
	<rect x="1171.6" y="947.2" class="st4" width="90" height="30"/>
	<rect x="1171.4" y="656.1" class="st4" width="90" height="30"/>
	<rect x="1171.6" y="607.5" class="st4" width="90" height="30"/>
	<rect x="1171.4" y="559" class="st5" width="90" height="30"/>
	<rect x="1171.6" y="510.5" class="st7" width="90" height="30"/>
	<rect x="1069.8" y="850.2" class="st7" width="90" height="30"/>
	<rect x="1272.1" y="947.2" class="st5" width="90" height="30"/>
	<rect x="1271.9" y="898.7" class="st4" width="90" height="30"/>
	<rect x="1272.1" y="850.2" class="st4" width="90" height="30"/>
	<rect x="1271.9" y="801.6" class="st5" width="90" height="30"/>
	<rect x="1272.1" y="753.1" class="st7" width="90" height="30"/>
	<rect x="1272.1" y="607.5" class="st7" width="90" height="30"/>
	<rect x="1272.1" y="656.1" class="st7" width="90" height="30"/>
	<rect x="1272.1" y="704.6" class="st7" width="90" height="30"/>
	<rect x="1271.9" y="559" class="st5" width="90" height="30"/>
	<rect x="1272.1" y="510.5" class="st5" width="90" height="30"/>
</g>
<rect x="1531.4" y="680.1" class="st8" width="20" height="34.9"/>
<rect x="1613.7" y="565" class="st8" width="20" height="150"/>
<rect x="1654.9" y="595.2" class="st8" width="20" height="119.8"/>
<rect x="1490.2" y="615.6" class="st8" width="20" height="99.4"/>
<rect x="1449" y="603.6" class="st8" width="20" height="111.4"/>
<rect x="1696.1" y="667.5" class="st8" width="20" height="47.5"/>
<rect x="1572.6" y="647" class="st8" width="20" height="68"/>
<rect x="205" y="191.1" class="st9" width="450" height="35"/>
<rect x="188" y="326.6" class="st10" width="450" height="35"/>
<rect x="188" y="376.5" class="st11" width="289.6" height="17.5"/>
<g>
	
		<rect x="1519" y="713.1" transform="matrix(-1.836970e-16 1 -1 -1.836970e-16 2312.1079 -735.8922)" class="st8" width="10" height="150"/>
	
		<rect x="1544.2" y="709.3" transform="matrix(-1.836970e-16 1 -1 -1.836970e-16 2358.646 -739.6873)" class="st8" width="10" height="200.3"/>
	
		<rect x="1493" y="781.9" transform="matrix(-1.836970e-16 1 -1 -1.836970e-16 2328.8438 -667.1418)" class="st8" width="10" height="98"/>
	
		<rect x="1533.3" y="762.9" transform="matrix(-1.836970e-16 1 -1 -1.836970e-16 2390.5559 -686.1108)" class="st8" width="10" height="178.7"/>
	
		<rect x="1471.9" y="845.7" transform="matrix(-1.836970e-16 1 -1 -1.836970e-16 2350.5044 -603.316)" class="st8" width="10" height="55.8"/>
	
		<rect x="1524.3" y="814.6" transform="matrix(-1.836970e-16 1 -1 -1.836970e-16 2424.2991 -634.3676)" class="st8" width="10" height="160.7"/>
</g>
<path class="st3" d="M1848.5,31.5c-15.2,0-27.5,12.3-27.5,27.5s12.3,27.5,27.5,27.5S1876,74.1,1876,59S1863.7,31.5,1848.5,31.5z
	 M1848.5,39.7c4.6,0,8.2,3.7,8.2,8.2c0,4.6-3.7,8.2-8.2,8.2s-8.2-3.7-8.2-8.2C1840.2,43.4,1843.9,39.7,1848.5,39.7z M1848.5,78.8
	c-6.9,0-12.9-3.5-16.5-8.9c0.1-5.5,11-8.5,16.5-8.5s16.4,3,16.5,8.5C1861.4,75.2,1855.4,78.8,1848.5,78.8z"/>
<g>
	<rect x="176.7" y="1104.3" class="st1" width="1218.9" height="175.7"/>
	<rect x="167.8" y="1100.9" class="st2" width="1218.9" height="179.1"/>
</g>
<g>
	<rect x="1417.1" y="1109.9" class="st1" width="354.8" height="170.1"/>
	<rect x="1415.6" y="1106.5" class="st2" width="348.8" height="173.5"/>
</g>
<rect x="188" y="1133.4" class="st10" width="399.8" height="17.5"/>
<rect x="188" y="1182.9" class="st11" width="289.6" height="17.5"/>
<rect x="1445.2" y="1137.1" class="st11" width="289.6" height="17.5"/>
<rect x="1445.2" y="1174.2" class="st12" width="289.6" height="17.5"/>
<rect x="641.4" y="1191.7" class="st11" width="289.6" height="17.5"/>
<rect x="1032.3" y="1191.7" class="st11" width="289.6" height="17.5"/>
<line class="st13" x1="231" y1="522.9" x2="231" y2="947.2"/>
<line class="st13" x1="930.9" y1="947.2" x2="231" y2="947.2"/>
<polyline class="st14" points="239,844.1 348.4,754.1 503.9,844.1 647.3,767.7 776.2,734 865.1,693.7 930.9,638.8 "/>
<g>
	
		<linearGradient id="SVGID_1_" gradientUnits="userSpaceOnUse" x1="2.8667" y1="1131.1838" x2="6.237" y2="1131.1838" gradientTransform="matrix(16.4342 0 0 16.4342 -15.2559 -18531.5293)">
		<stop  offset="0" style="stop-color:#FFFFFF;stop-opacity:0.1"/>
		<stop  offset="1" style="stop-color:#FFFFFF;stop-opacity:0"/>
	</linearGradient>
	<path class="st15" d="M82.8,31.1H72.7c-2.4,0-4.4,2-4.4,4.4v13H53.6c-2.4,0-4.3,1.9-4.3,4.3v14.5H36.2c-2.4,0-4.3,1.9-4.3,4.3v10.1
		c0,2.4,1.9,4.3,4.3,4.4h46.6c2.4,0,4.4-2,4.4-4.4V35.5C87.2,33.1,85.2,31.1,82.8,31.1z"/>
	
		<linearGradient id="SVGID_2_" gradientUnits="userSpaceOnUse" x1="2.8667" y1="1131.1838" x2="6.237" y2="1131.1838" gradientTransform="matrix(16.4342 0 0 16.4342 -15.2559 -18531.5293)">
		<stop  offset="0" style="stop-color:#FFFFFF;stop-opacity:0.1"/>
		<stop  offset="1" style="stop-color:#FFFFFF;stop-opacity:0"/>
	</linearGradient>
	<path class="st16" d="M82.8,31.1H72.7c-2.4,0-4.4,2-4.4,4.4v13H53.6c-2.4,0-4.3,1.9-4.3,4.3v14.5H36.2c-2.4,0-4.3,1.9-4.3,4.3v10.1
		c0,2.4,1.9,4.3,4.3,4.4h46.6c2.4,0,4.4-2,4.4-4.4V35.5C87.2,33.1,85.2,31.1,82.8,31.1z"/>
	<g>
		<defs>
			<path id="SVGID_3_" d="M82.8,31.1h-10c-2.4,0-4.4,2-4.4,4.4v13H53.7c-2.4,0-4.4,2-4.4,4.3v14.5H36.2c-2.4,0-4.4,2-4.4,4.3v10.1
				c0,2.4,2,4.3,4.4,4.3h46.5c2.4,0,4.4-2,4.4-4.4V35.5C87.2,33.1,85.2,31.1,82.8,31.1z"/>
		</defs>
		<clipPath id="SVGID_4_">
			<use xlink:href="#SVGID_3_"  style="overflow:visible;"/>
		</clipPath>
		<g class="st17">
			<path class="st18" d="M82.8,31.1h-10c-2.4,0-4.4,2-4.4,4.4v50.6h14.5c2.4,0,4.4-2,4.4-4.4V35.5C87.2,33.1,85.2,31.1,82.8,31.1z"
				/>
			<path class="st19" d="M49.3,52.8v14.5H36.2c-2.4,0-4.4,2-4.4,4.3v10.1c0,2.4,2,4.3,4.4,4.3h32V48.5H53.7
				C51.3,48.5,49.3,50.4,49.3,52.8z"/>
		</g>
	</g>
	<g>
		<defs>
			<path id="SVGID_5_" d="M82.8,31.1h-10c-2.4,0-4.4,2-4.4,4.4v13H53.7c-2.4,0-4.4,2-4.4,4.3v14.5H36.2c-2.4,0-4.4,2-4.4,4.3v10.1
				c0,2.4,2,4.3,4.4,4.3h46.5c2.4,0,4.4-2,4.4-4.4V35.5C87.2,33.1,85.2,31.1,82.8,31.1z"/>
		</defs>
		<clipPath id="SVGID_6_">
			<use xlink:href="#SVGID_5_"  style="overflow:visible;"/>
		</clipPath>
		
			<linearGradient id="SVGID_7_" gradientUnits="userSpaceOnUse" x1="4.5169" y1="1131.144" x2="6.152" y2="1132.7792" gradientTransform="matrix(16.4342 0 0 16.4342 -15.2559 -18531.5293)">
			<stop  offset="0" style="stop-color:#BE3B26;stop-opacity:0.2"/>
			<stop  offset="1" style="stop-color:#BE3B26;stop-opacity:2.000000e-02"/>
		</linearGradient>
		<path class="st20" d="M68.3,48.5v37.6h14.5c2.4,0,4.4-2,4.4-4.4V67.3L68.3,48.5z"/>
	</g>
	<g>
		<g>
			<defs>
				<path id="SVGID_8_" d="M82.8,31.1h-10c-2.4,0-4.4,2-4.4,4.4v13H53.7c-2.4,0-4.4,2-4.4,4.3v14.5H36.2c-2.4,0-4.4,2-4.4,4.3v10.1
					c0,2.4,2,4.3,4.4,4.3h46.5c2.4,0,4.4-2,4.4-4.4V35.5C87.2,33.1,85.2,31.1,82.8,31.1z"/>
			</defs>
			<clipPath id="SVGID_9_">
				<use xlink:href="#SVGID_8_"  style="overflow:visible;"/>
			</clipPath>
			<path class="st21" d="M53.7,48.8h14.6v-0.4H53.7c-2.4,0-4.4,2-4.4,4.3v0.4C49.3,50.8,51.3,48.8,53.7,48.8z"/>
		</g>
	</g>
	<g>
		<g>
			<defs>
				<path id="SVGID_10_" d="M82.8,31.1h-10c-2.4,0-4.4,2-4.4,4.4v13H53.7c-2.4,0-4.4,2-4.4,4.3v14.5H36.2c-2.4,0-4.4,2-4.4,4.3v10.1
					c0,2.4,2,4.3,4.4,4.3h46.5c2.4,0,4.4-2,4.4-4.4V35.5C87.2,33.1,85.2,31.1,82.8,31.1z"/>
			</defs>
			<clipPath id="SVGID_11_">
				<use xlink:href="#SVGID_10_"  style="overflow:visible;"/>
			</clipPath>
			<path class="st22" d="M36.2,67.6h13.1v-0.4H36.2c-2.4,0-4.4,2-4.4,4.3V72C31.9,69.6,33.8,67.6,36.2,67.6z"/>
		</g>
	</g>
	<g>
		<g>
			<defs>
				<path id="SVGID_12_" d="M82.8,31.1h-10c-2.4,0-4.4,2-4.4,4.4v13H53.7c-2.4,0-4.4,2-4.4,4.3v14.5H36.2c-2.4,0-4.4,2-4.4,4.3v10.1
					c0,2.4,2,4.3,4.4,4.3h46.5c2.4,0,4.4-2,4.4-4.4V35.5C87.2,33.1,85.2,31.1,82.8,31.1z"/>
			</defs>
			<clipPath id="SVGID_13_">
				<use xlink:href="#SVGID_12_"  style="overflow:visible;"/>
			</clipPath>
			<path class="st23" d="M82.8,31.1h-10c-2.4,0-4.4,2-4.4,4.4v0.4c0-2.4,2-4.4,4.4-4.4h10c2.4,0,4.4,2,4.4,4.4v-0.4
				C87.2,33.1,85.2,31.1,82.8,31.1z"/>
		</g>
	</g>
	<g>
		<g>
			<defs>
				<path id="SVGID_14_" d="M82.8,31.1h-10c-2.4,0-4.4,2-4.4,4.4v13H53.7c-2.4,0-4.4,2-4.4,4.3v14.5H36.2c-2.4,0-4.4,2-4.4,4.3v10.1
					c0,2.4,2,4.3,4.4,4.3h46.5c2.4,0,4.4-2,4.4-4.4V35.5C87.2,33.1,85.2,31.1,82.8,31.1z"/>
			</defs>
			<clipPath id="SVGID_15_">
				<use xlink:href="#SVGID_14_"  style="overflow:visible;"/>
			</clipPath>
			<path class="st24" d="M82.8,85.7H36.2c-2.4,0-4.4-2-4.4-4.3v0.4c0,2.4,2,4.3,4.4,4.3h46.5c2.4,0,4.4-2,4.4-4.4v-0.4
				C87.2,83.7,85.2,85.7,82.8,85.7L82.8,85.7z"/>
		</g>
	</g>
	
		<linearGradient id="SVGID_16_" gradientUnits="userSpaceOnUse" x1="3.9979" y1="1130.6323" x2="6.1697" y2="1132.8042" gradientTransform="matrix(16.4342 0 0 16.4342 -15.2559 -18531.5293)">
		<stop  offset="0" style="stop-color:#FFFFFF;stop-opacity:0.1"/>
		<stop  offset="1" style="stop-color:#FFFFFF;stop-opacity:0"/>
	</linearGradient>
	<path class="st25" d="M82.8,31.1h-10c-2.4,0-4.4,2-4.4,4.4v13H53.7c-2.4,0-4.4,2-4.4,4.3v14.5H36.2c-2.4,0-4.4,2-4.4,4.3v10.1
		c0,2.4,2,4.3,4.4,4.3h46.5c2.4,0,4.4-2,4.4-4.4V35.5C87.2,33.1,85.2,31.1,82.8,31.1z"/>
</g>
</svg>
